<?xml version="1.0" encoding="utf-8"?>
<!-- Generator: Adobe Illustrator 26.5.0, SVG Export Plug-In . SVG Version: 6.00 Build 0)  -->
<svg version="1.1" id="Layer_1" xmlns="http://www.w3.org/2000/svg" xmlns:xlink="http://www.w3.org/1999/xlink" x="0px" y="0px"
	 viewBox="0 0 500 500" style="enable-background:new 0 0 500 500;" xml:space="preserve">
<style type="text/css">
	.st0{fill:#EAEBEA;}
</style>
<g>
	<path class="st0" d="M417.7,0H82.3C36.9,0,0,36.9,0,82.3v335.4C0,463.1,36.9,500,82.3,500h335.4c45.4,0,82.3-36.9,82.3-82.3V82.3
		C500,36.9,463.1,0,417.7,0z M476,417.7c0,32.1-26.1,58.2-58.2,58.2H82.3C50.2,476,24,449.8,24,417.7V82.3C24,50.2,50.2,24,82.3,24
		h335.4c32.1,0,58.3,26.1,58.3,58.2V417.7z"/>
	<path class="st0" d="M238.7,250.2c-5.1-3.8-10.8-6.8-16.5-10.3c1.3-0.7,2.6-1.5,3.8-2.2c14.6-9,19.9-22.5,19.2-39
		c-0.6-15.1-8.4-25.6-21.5-32.3c-8.3-4.2-17.1-6.4-26.4-6.4c-29.1,0-58.3,0-87.4,0c-1.4,0-2.9,0.1-4.3,0.2c0,59,0,117.6,0,176.4
		c1.2,0.1,2.2,0.3,3.2,0.3c27.6,0,55.3,0,82.9,0c17.6,0,33.8-4.5,47.5-16.2c6.9-6,11.8-13.4,13-22.5c0.9-7.5,1-15.2,0.6-22.8
		C252.2,264.8,246.9,256.4,238.7,250.2z M144.3,190.4c2.9,0,5.4,0,7.9,0c10.5,0,21-0.2,31.5,0.1c3.8,0.1,7.8,0.7,11.4,1.9
		c8.4,2.8,12.8,9.4,12.8,18.1c0,8.8-4.6,15.5-13.1,18.4c-2.8,1-5.8,1.8-8.8,1.8c-13.7,0.2-27.3,0.1-41.5,0.1
		c-0.1-1.5-0.2-2.5-0.2-3.5C144.3,215.3,144.3,203.2,144.3,190.4z M214.5,286.4c-1.2,10.9-10.3,19.3-23.7,19.9
		c-15.3,0.7-30.6,0.2-46.3,0.2c0-16.2,0-31.8,0-47.4c0.4-0.3,0.7-0.6,0.9-0.6c15.6,0.1,31.3-0.5,46.8,0.5
		C207.9,260.2,216.2,271.2,214.5,286.4z"/>
	<path class="st0" d="M394.5,281.4c-0.8-8.7-0.9-17-2.5-24.9c-7.7-36.6-43.9-59.5-78.7-50.1c-49.4,13.4-64.4,75.3-32.2,112.2
		c17.3,19.7,39.7,24.6,64.7,19.8c21.8-4.2,36.8-16.6,44-37.9c0.3-1,0.4-2.2,0.6-3.6c-9.5,0-18.5-0.1-27.5,0.1c-1.3,0-3,1.2-3.8,2.4
		c-7.8,11.1-18.4,15.8-31.9,14.5c-16.1-1.6-28.1-15.9-26.4-32.5C331.8,281.4,362.5,281.4,394.5,281.4z M326,231.5
		c15.2-2.1,28.8,9.5,31.4,27.3c-18.8,0-37.4,0-56,0C299.8,246.9,312,233.4,326,231.5z"/>
	<path class="st0" d="M364.9,171.8c-24.2,0-48,0-71.8,0c0,5.9,0,11.6,0,17.3c24.1,0,47.9,0,71.8,0
		C364.9,183.2,364.9,177.7,364.9,171.8z"/>
</g>
</svg>
