<?xml version="1.0" encoding="utf-8"?>
<!-- Generator: Adobe Illustrator 26.5.0, SVG Export Plug-In . SVG Version: 6.00 Build 0)  -->
<svg version="1.1" id="Layer_1" xmlns="http://www.w3.org/2000/svg" xmlns:xlink="http://www.w3.org/1999/xlink" x="0px" y="0px"
	 viewBox="0 0 500 500" style="enable-background:new 0 0 500 500;" xml:space="preserve">
<style type="text/css">
	.st0{fill:none;}
</style>
<g>
	<path class="st0" d="M389.54,62H110.46C83.74,62,62,83.74,62,110.46v279.07C62,416.26,83.74,438,110.46,438h279.07
		c26.72,0,48.46-21.74,48.46-48.46V110.46C438,83.74,416.26,62,389.54,62z M188.86,360.44c-0.01,6.61-3.1,9.53-9.74,9.54
		c-10.49,0.02-20.99,0.03-31.48,0c-6.41-0.02-9.45-3.03-9.45-9.4c-0.03-23.74-0.01-47.48-0.01-71.21c0-23.36-0.01-46.73,0-70.09
		c0-7.2,2.76-10.06,9.89-10.09c10.37-0.05,20.74-0.06,31.11,0c6.72,0.04,9.68,2.91,9.69,9.58
		C188.9,265.99,188.9,313.22,188.86,360.44z M163.01,195.36c-17.94-0.16-32.44-15.01-32.25-33.04
		c0.19-18.09,15.17-32.58,33.41-32.32c17.77,0.25,32.16,15.06,31.98,32.91C195.95,181.27,181.4,195.52,163.01,195.36z
		 M369.17,360.74c0,6.43-2.71,9.17-9.09,9.18c-11.25,0.03-22.49,0.03-33.74,0c-6.5-0.01-9.12-2.58-9.13-9.08
		c-0.02-23.12,0.26-46.23-0.09-69.34c-0.12-8.03-0.96-16.23-2.84-24.02c-2.29-9.52-8.93-15.42-18.95-16.74
		c-10.95-1.45-20.06,1.67-26.18,11.34c-4.88,7.71-6.8,16.31-6.82,25.33c-0.05,23.99-0.01,47.98-0.02,71.97
		c0,8.44-2.19,10.6-10.66,10.6c-10.25,0-20.49,0.02-30.74-0.01c-6.5-0.01-9.21-2.64-9.21-9.02c-0.01-47.61-0.01-95.21,0-142.82
		c0-6.27,2.6-8.87,8.89-8.89c11-0.04,21.99-0.04,32.99,0c6.2,0.03,8.79,2.68,8.89,8.97c0.05,3.12,0.01,6.23,0.01,9.79
		c0.75-0.38,1.02-0.42,1.13-0.58c7.63-10.73,18.03-17.19,30.94-19.3c16.07-2.63,31.95-2.35,46.66,5.83
		c13.74,7.64,20.97,20.26,24.01,35.04c2.2,10.7,3.48,21.74,3.71,32.65C369.47,308,369.16,334.38,369.17,360.74z"/>
	<path d="M389.54,42H110.46C72.71,42,42,72.71,42,110.46v279.07C42,427.29,72.71,458,110.46,458h279.07
		c37.75,0,68.46-30.71,68.46-68.46V110.46C458,72.71,427.29,42,389.54,42z M438,389.54c0,26.72-21.74,48.46-48.46,48.46H110.46
		C83.74,438,62,416.26,62,389.54V110.46C62,83.74,83.74,62,110.46,62h279.07C416.26,62,438,83.74,438,110.46V389.54z"/>
	<path d="M365.22,249c-3.04-14.78-10.26-27.4-24.01-35.04c-14.71-8.17-30.59-8.46-46.66-5.83c-12.9,2.11-23.3,8.57-30.94,19.3
		c-0.11,0.16-0.38,0.2-1.13,0.58c0-3.56,0.04-6.67-0.01-9.79c-0.09-6.28-2.69-8.94-8.89-8.97c-11-0.05-21.99-0.04-32.99,0
		c-6.29,0.02-8.89,2.63-8.89,8.89c-0.01,47.61-0.01,95.21,0,142.82c0,6.38,2.71,9.01,9.21,9.02c10.25,0.02,20.49,0.01,30.74,0.01
		c8.47,0,10.66-2.16,10.66-10.6c0.01-23.99-0.03-47.98,0.02-71.97c0.02-9.03,1.94-17.62,6.82-25.33
		c6.12-9.67,15.23-12.79,26.18-11.34c10.02,1.32,16.66,7.23,18.95,16.74c1.88,7.79,2.72,15.99,2.84,24.02
		c0.35,23.11,0.07,46.23,0.09,69.34c0.01,6.51,2.63,9.07,9.13,9.08c11.25,0.03,22.49,0.03,33.74,0c6.38-0.02,9.09-2.75,9.09-9.18
		c-0.01-26.36,0.3-52.74-0.25-79.09C368.7,270.73,367.42,259.69,365.22,249z"/>
	<path d="M179.18,209.18c-10.37-0.06-20.74-0.06-31.11,0c-7.13,0.04-9.89,2.89-9.89,10.09c-0.01,23.36,0,46.73,0,70.09
		c0,23.74-0.02,47.48,0.01,71.21c0.01,6.37,3.05,9.38,9.45,9.4c10.49,0.03,20.99,0.03,31.48,0c6.64-0.02,9.73-2.93,9.74-9.54
		c0.04-47.23,0.04-94.45,0-141.68C188.86,212.09,185.9,209.22,179.18,209.18z"/>
	<path d="M164.17,130c-18.24-0.26-33.22,14.23-33.41,32.32c-0.19,18.03,14.31,32.88,32.25,33.04c18.39,0.16,32.95-14.09,33.14-32.45
		C196.33,145.06,181.94,130.25,164.17,130z"/>
</g>
</svg>
