<?xml version="1.0" encoding="utf-8"?>
<!-- Generator: Adobe Illustrator 26.5.0, SVG Export Plug-In . SVG Version: 6.00 Build 0)  -->
<svg version="1.1" id="Layer_1" xmlns="http://www.w3.org/2000/svg" xmlns:xlink="http://www.w3.org/1999/xlink" x="0px" y="0px"
	 viewBox="0 0 500 500" style="enable-background:new 0 0 500 500;" xml:space="preserve">
<style type="text/css">
	.st0{fill:#0C0E0C;}
	.st1{fill:#EAEBEA;}
</style>
<circle class="st0" cx="250" cy="250" r="248.5"/>
<g>
	<g>
		<path class="st1" d="M152.01,159.13h42.88v86.19c0,9.23-2.26,16.33-6.71,21.1c-4.41,4.74-10.69,7.04-19.19,7.04
			c-8.4,0-14.63-2.32-19.05-7.09c-4.46-4.82-6.72-11.91-6.72-21.05v-5.24H96.47v5.24c0,22.36,6.35,40.09,18.87,52.7
			c12.53,12.63,30.36,19.03,53,19.03c22.26,0,39.99-6.37,52.7-18.93c12.72-12.58,19.17-30.34,19.17-52.8V116.59h-88.18V159.13z"/>
		<polygon class="st1" points="309.86,271.88 309.86,116.59 264.55,116.59 264.55,314.42 403.53,314.42 403.53,271.88 		"/>
	</g>
	<g>
		<path class="st1" d="M105.46,351.11v10.27h17.98v7.21h-17.98v14.15h-8.99v-38.85h29.36v7.21H105.46z"/>
		<path class="st1" d="M142.22,380.8c-3.24-1.74-5.77-4.13-7.6-7.19c-1.83-3.05-2.75-6.48-2.75-10.29s0.92-7.24,2.75-10.29
			c1.83-3.05,4.37-5.45,7.6-7.19c3.24-1.74,6.87-2.61,10.91-2.61c4.03,0,7.66,0.87,10.88,2.61c3.22,1.74,5.75,4.13,7.6,7.19
			c1.85,3.05,2.78,6.48,2.78,10.29s-0.93,7.24-2.78,10.29c-1.85,3.05-4.38,5.45-7.6,7.19c-3.22,1.74-6.85,2.61-10.88,2.61
			C149.1,383.41,145.46,382.54,142.22,380.8z M159.35,374.17c1.85-1.05,3.3-2.53,4.36-4.41c1.05-1.89,1.58-4.03,1.58-6.44
			c0-2.4-0.53-4.55-1.58-6.44c-1.05-1.89-2.51-3.36-4.36-4.41c-1.85-1.05-3.92-1.58-6.22-1.58c-2.29,0-4.37,0.53-6.22,1.58
			c-1.85,1.05-3.3,2.53-4.36,4.41c-1.05,1.89-1.58,4.03-1.58,6.44c0,2.4,0.53,4.55,1.58,6.44c1.05,1.89,2.51,3.36,4.36,4.41
			c1.85,1.05,3.92,1.58,6.22,1.58C155.42,375.75,157.5,375.22,159.35,374.17z"/>
		<path class="st1" d="M219.56,343.89v38.85h-7.38l-19.37-23.59v23.59h-8.88v-38.85h7.44l19.31,23.59v-23.59H219.56z"/>
		<path class="st1" d="M239.59,351.22h-12.43v-7.33h33.85v7.33h-12.43v31.52h-8.99V351.22z"/>
		<path class="st1" d="M268.62,343.89h8.99v38.85h-8.99V343.89z"/>
		<path class="st1" d="M289.6,343.89h8.99v31.52h19.48v7.33H289.6V343.89z"/>
		<path class="st1" d="M325.89,343.89h8.99v31.52h19.48v7.33h-28.47V343.89z"/>
		<path class="st1" d="M388.1,374.42h-18.04l-3.44,8.32h-9.21l17.32-38.85h8.88l17.37,38.85h-9.43L388.1,374.42z M385.27,367.59
			l-6.16-14.87l-6.16,14.87H385.27z"/>
	</g>
</g>
</svg>
