<?xml version="1.0" encoding="utf-8"?>
<!-- Generator: Adobe Illustrator 26.5.0, SVG Export Plug-In . SVG Version: 6.00 Build 0)  -->
<svg version="1.1" id="Layer_1" xmlns="http://www.w3.org/2000/svg" xmlns:xlink="http://www.w3.org/1999/xlink" x="0px" y="0px"
	 viewBox="0 0 1080 938.6" style="enable-background:new 0 0 1080 938.6;" xml:space="preserve">
<style type="text/css">
	.st0{fill:#FFFFFF;}
</style>
<g>
	<g>
		<path class="st0" d="M195.2,149.6h150.8v303.2c0,32.5-7.9,57.4-23.6,74.2c-15.5,16.7-37.6,24.8-67.5,24.8
			c-29.6,0-51.5-8.2-67-24.9c-15.7-17-23.6-41.9-23.6-74.1v-18.4H-0.2v18.4c0,78.6,22.3,141,66.4,185.4
			c44.1,44.4,106.8,66.9,186.4,66.9c78.3,0,140.7-22.4,185.4-66.6c44.7-44.2,67.4-106.7,67.4-185.7V0H195.2V149.6z"/>
		<polygon class="st0" points="750.5,546.3 750.5,0 591.1,0 591.1,695.9 1080,695.9 1080,546.3 		"/>
	</g>
	<g>
		<path class="st0" d="M31.5,824.9V861h63.3v25.4H31.5v49.8H-0.2V799.5h103.3v25.4H31.5z"/>
		<path class="st0" d="M160.8,929.4c-11.4-6.1-20.3-14.5-26.7-25.3c-6.4-10.7-9.7-22.8-9.7-36.2c0-13.4,3.2-25.5,9.7-36.2
			c6.4-10.7,15.4-19.2,26.7-25.3s24.2-9.2,38.4-9.2s26.9,3.1,38.3,9.2c11.3,6.1,20.2,14.5,26.7,25.3c6.5,10.7,9.8,22.8,9.8,36.2
			c0,13.4-3.3,25.5-9.8,36.2c-6.5,10.7-15.4,19.2-26.7,25.3c-11.3,6.1-24.1,9.2-38.3,9.2C185,938.6,172.2,935.5,160.8,929.4z
			 M221,906c6.5-3.7,11.6-8.9,15.3-15.5c3.7-6.6,5.6-14.2,5.6-22.6c0-8.5-1.9-16-5.6-22.6c-3.7-6.6-8.8-11.8-15.3-15.5
			c-6.5-3.7-13.8-5.6-21.9-5.6s-15.4,1.9-21.9,5.6c-6.5,3.7-11.6,8.9-15.3,15.5c-3.7,6.6-5.6,14.2-5.6,22.6c0,8.5,1.9,16,5.6,22.6
			c3.7,6.6,8.8,11.8,15.3,15.5c6.5,3.7,13.8,5.6,21.9,5.6C207.2,911.6,214.5,909.8,221,906z"/>
		<path class="st0" d="M432.8,799.5v136.7h-26l-68.1-83v83h-31.2V799.5h26.2l67.9,83v-83H432.8z"/>
		<path class="st0" d="M503.3,825.3h-43.7v-25.8h119.1v25.8h-43.7v110.9h-31.6L503.3,825.3L503.3,825.3z"/>
		<path class="st0" d="M605.4,799.5H637v136.7h-31.6V799.5z"/>
		<path class="st0" d="M679.2,799.5h31.6v110.9h68.5v25.8H679.2V799.5z"/>
		<path class="st0" d="M806.9,799.5h31.6v110.9H907v25.8H806.9V799.5z"/>
		<path class="st0" d="M1025.7,906.9h-63.4l-12.1,29.3h-32.4l60.9-136.7h31.2l61.1,136.7h-33.2L1025.7,906.9z M1015.8,882.9
			l-21.7-52.3l-21.7,52.3H1015.8z"/>
	</g>
</g>
</svg>
